<svg xmlns="http://www.w3.org/2000/svg" width="1500" height="1980" viewBox="0 0 1500 1980">
<rect width="100%" height="100%" fill="#ffffff"/>
<rect x="40" y="40" width="1420" height="150" rx="4" ry="4" fill="#FBFCFD" stroke="#C6D0D9" stroke-width="1"/>
<rect x="70" y="100" width="440" height="70" rx="6" ry="6" fill="#FFFFFF" stroke="#D7DDE3" stroke-width="1"/>
<rect x="540" y="100" width="440" height="70" rx="6" ry="6" fill="#FFFFFF" stroke="#D7DDE3" stroke-width="1"/>
<rect x="1010" y="100" width="420" height="70" rx="6" ry="6" fill="#FFFFFF" stroke="#D7DDE3" stroke-width="1"/>
<polyline points="750,190 750,250" fill="none" stroke="#2B2B2B" stroke-width="1.8"/>
<polygon points="750,250 745.3,239.7 754.7,239.7" fill="#2B2B2B"/>
<rect x="40" y="250" width="1420" height="330" rx="4" ry="4" fill="#FBFCFD" stroke="#C6D0D9" stroke-width="1"/>
<rect x="70" y="312" width="184" height="54" rx="7" ry="7" fill="#FFFFFF" stroke="#D7DDE3" stroke-width="1"/>
<rect x="269" y="312" width="184" height="54" rx="7" ry="7" fill="#FFFFFF" stroke="#D7DDE3" stroke-width="1"/>
<rect x="468" y="312" width="184" height="54" rx="7" ry="7" fill="#FFFFFF" stroke="#D7DDE3" stroke-width="1"/>
<rect x="667" y="312" width="184" height="54" rx="7" ry="7" fill="#FFFFFF" stroke="#D7DDE3" stroke-width="1"/>
<rect x="866" y="312" width="184" height="54" rx="7" ry="7" fill="#FFFFFF" stroke="#D7DDE3" stroke-width="1"/>
<rect x="1065" y="312" width="184" height="54" rx="7" ry="7" fill="#FFFFFF" stroke="#D7DDE3" stroke-width="1"/>
<rect x="1264" y="312" width="166" height="54" rx="7" ry="7" fill="#FFFFFF" stroke="#D7DDE3" stroke-width="1"/>
<rect x="70" y="374" width="184" height="54" rx="7" ry="7" fill="#FFFFFF" stroke="#D7DDE3" stroke-width="1"/>
<rect x="269" y="374" width="184" height="54" rx="7" ry="7" fill="#FFFFFF" stroke="#D7DDE3" stroke-width="1"/>
<rect x="468" y="374" width="184" height="54" rx="7" ry="7" fill="#FFFFFF" stroke="#D7DDE3" stroke-width="1"/>
<rect x="667" y="374" width="184" height="54" rx="7" ry="7" fill="#FFFFFF" stroke="#D7DDE3" stroke-width="1"/>
<rect x="866" y="374" width="184" height="54" rx="7" ry="7" fill="#FFFFFF" stroke="#D7DDE3" stroke-width="1"/>
<rect x="1065" y="374" width="184" height="54" rx="7" ry="7" fill="#FFFFFF" stroke="#D7DDE3" stroke-width="1"/>
<rect x="1264" y="374" width="166" height="54" rx="7" ry="7" fill="#FFFFFF" stroke="#D7DDE3" stroke-width="1"/>
<rect x="70" y="452" width="1380" height="110" rx="6" ry="6" fill="#F0F3F6" stroke="none" stroke-width="1"/>
<polyline points="750,580 750,640" fill="none" stroke="#2B2B2B" stroke-width="1.8"/>
<polygon points="750,640 745.3,629.7 754.7,629.7" fill="#2B2B2B"/>
<rect x="40" y="640" width="1420" height="290" rx="4" ry="4" fill="#E9F3FB" stroke="#9CCBE9" stroke-width="1"/>
<rect x="70" y="712" width="320" height="140" rx="7" ry="7" fill="#FFFFFF" stroke="#BCD8EC" stroke-width="1"/>
<rect x="420" y="712" width="320" height="140" rx="7" ry="7" fill="#FFFFFF" stroke="#BCD8EC" stroke-width="1"/>
<rect x="770" y="712" width="320" height="140" rx="7" ry="7" fill="#FFFFFF" stroke="#BCD8EC" stroke-width="1"/>
<rect x="1120" y="712" width="320" height="185" rx="7" ry="7" fill="#FFFFFF" stroke="#BCD8EC" stroke-width="1"/>
<polyline points="750,930 750,990" fill="none" stroke="#2B2B2B" stroke-width="1.8"/>
<polygon points="750,990 745.3,979.7 754.7,979.7" fill="#2B2B2B"/>
<rect x="40" y="990" width="1420" height="510" rx="4" ry="4" fill="#FBFCFD" stroke="#C6D0D9" stroke-width="1"/>
<rect x="70" y="1056" width="250" height="130" rx="8" ry="8" fill="#FFFFFF" stroke="#BCD8EC" stroke-width="1"/>
<rect x="352" y="1056" width="250" height="130" rx="8" ry="8" fill="#FFFFFF" stroke="#BCD8EC" stroke-width="1"/>
<rect x="635" y="1056" width="250" height="130" rx="8" ry="8" fill="#FFFFFF" stroke="#BCD8EC" stroke-width="1"/>
<rect x="917" y="1056" width="250" height="130" rx="8" ry="8" fill="#FFFFFF" stroke="#BCD8EC" stroke-width="1"/>
<rect x="1200" y="1056" width="250" height="130" rx="8" ry="8" fill="#FFFFFF" stroke="#E8B871" stroke-width="1.5"/>
<rect x="1272" y="1130" width="106" height="26" rx="13" ry="13" fill="#FDEEE0" stroke="none" stroke-width="1"/>
<polyline points="320,1121 352,1121" fill="none" stroke="#2B2B2B" stroke-width="1.5"/>
<polygon points="352,1121 342.1,1125.5 342.1,1116.5" fill="#2B2B2B"/>
<polyline points="602,1121 635,1121" fill="none" stroke="#2B2B2B" stroke-width="1.5"/>
<polygon points="635,1121 625.1,1125.5 625.1,1116.5" fill="#2B2B2B"/>
<polyline points="885,1121 917,1121" fill="none" stroke="#2B2B2B" stroke-width="1.5"/>
<polygon points="917,1121 907.1,1125.5 907.1,1116.5" fill="#2B2B2B"/>
<polyline points="1167,1121 1200,1121" fill="none" stroke="#2B2B2B" stroke-width="1.5"/>
<polygon points="1200,1121 1190.1,1125.5 1190.1,1116.5" fill="#2B2B2B"/>
<polyline points="1325,1186 1325,1242" fill="none" stroke="#2B2B2B" stroke-width="1.5"/>
<polygon points="1325,1242 1320.5,1232.1 1329.5,1232.1" fill="#2B2B2B"/>
<rect x="1200" y="1242" width="250" height="150" rx="8" ry="8" fill="#FFFFFF" stroke="#BCD8EC" stroke-width="1"/>
<rect x="917" y="1242" width="250" height="150" rx="8" ry="8" fill="#FFFFFF" stroke="#9CD3BA" stroke-width="2"/>
<rect x="635" y="1242" width="250" height="150" rx="8" ry="8" fill="#FFFFFF" stroke="#9CD3BA" stroke-width="2"/>
<rect x="352" y="1242" width="250" height="150" rx="8" ry="8" fill="#FFFFFF" stroke="#9CD3BA" stroke-width="2"/>
<polyline points="1200,1317 1167,1317" fill="none" stroke="#2B2B2B" stroke-width="1.5"/>
<polygon points="1167,1317 1176.9,1312.5 1176.9,1321.5" fill="#2B2B2B"/>
<polyline points="917,1317 885,1317" fill="none" stroke="#2B2B2B" stroke-width="1.5"/>
<polygon points="885,1317 894.9,1312.5 894.9,1321.5" fill="#2B2B2B"/>
<polyline points="635,1317 602,1317" fill="none" stroke="#2B2B2B" stroke-width="1.5"/>
<polygon points="602,1317 611.9,1312.5 611.9,1321.5" fill="#2B2B2B"/>
<rect x="70" y="1408" width="1380" height="64" rx="6" ry="6" fill="#F0F3F6" stroke="none" stroke-width="1"/>
<polyline points="750,1500 750,1560" fill="none" stroke="#2B2B2B" stroke-width="1.8"/>
<polygon points="750,1560 745.3,1549.7 754.7,1549.7" fill="#2B2B2B"/>
<rect x="40" y="1560" width="1420" height="380" rx="4" ry="4" fill="#E9F5F0" stroke="#A3D4C2" stroke-width="1"/>
<rect x="70" y="1628" width="300" height="185" rx="8" ry="8" fill="#FFFFFF" stroke="#B7DCC9" stroke-width="1"/>
<rect x="430" y="1628" width="300" height="185" rx="8" ry="8" fill="#FFFFFF" stroke="#B7DCC9" stroke-width="1"/>
<rect x="790" y="1628" width="300" height="185" rx="8" ry="8" fill="#FFFFFF" stroke="#B7DCC9" stroke-width="1"/>
<rect x="1150" y="1628" width="300" height="185" rx="8" ry="8" fill="#FFFFFF" stroke="#B7DCC9" stroke-width="1"/>
<polyline points="370,1720.5 430,1720.5" fill="none" stroke="#2B2B2B" stroke-width="1.5"/>
<polygon points="430,1720.5 420.1,1725.0 420.1,1716.0" fill="#2B2B2B"/>
<polyline points="730,1720.5 790,1720.5" fill="none" stroke="#2B2B2B" stroke-width="1.5"/>
<polygon points="790,1720.5 780.1,1725.0 780.1,1716.0" fill="#2B2B2B"/>
<polyline points="1090,1720.5 1150,1720.5" fill="none" stroke="#2B2B2B" stroke-width="1.5"/>
<polygon points="1150,1720.5 1140.1,1725.0 1140.1,1716.0" fill="#2B2B2B"/>
<rect x="70" y="1830" width="1380" height="60" rx="6" ry="6" fill="#F0F7F4" stroke="none" stroke-width="1"/>
<text x="74" y="81.1072" font-family="Arial, Helvetica, sans-serif" font-size="32" fill="#1a1a1a" font-weight="700" text-anchor="start">1 · Client surfaces</text>
<text x="290" y="128.549" font-family="Arial, Helvetica, sans-serif" font-size="28" fill="#1a1a1a" text-anchor="middle">Web application (Vue 3 + REST /</text>
<text x="290" y="164.389" font-family="Arial, Helvetica, sans-serif" font-size="28" fill="#1a1a1a" text-anchor="middle">SSE)</text>
<text x="760" y="146.469" font-family="Arial, Helvetica, sans-serif" font-size="28" fill="#1a1a1a" text-anchor="middle">CLI drivers</text>
<text x="1220" y="146.469" font-family="Arial, Helvetica, sans-serif" font-size="28" fill="#1a1a1a" text-anchor="middle">CI harness (mock-engine e2e)</text>
<text x="779" y="223.469" font-family="Arial, Helvetica, sans-serif" font-size="28" fill="#555555" text-anchor="start">startDiagnosis request · SSE event stream</text>
<text x="74" y="293.107" font-family="Arial, Helvetica, sans-serif" font-size="32" fill="#1a1a1a" font-weight="700" text-anchor="start">2 · Engine layer</text>
<text x="444" y="293.469" font-family="Arial, Helvetica, sans-serif" font-size="28" fill="#555555" text-anchor="start">14 interchangeable engines · one uniform event contract</text>
<text x="162" y="350.469" font-family="Arial, Helvetica, sans-serif" font-size="28" fill="#1a1a1a" text-anchor="middle">claude</text>
<text x="361" y="350.469" font-family="Arial, Helvetica, sans-serif" font-size="28" fill="#1a1a1a" text-anchor="middle">omp</text>
<text x="560" y="350.469" font-family="Arial, Helvetica, sans-serif" font-size="28" fill="#1a1a1a" text-anchor="middle">codex</text>
<text x="759" y="350.469" font-family="Arial, Helvetica, sans-serif" font-size="28" fill="#1a1a1a" text-anchor="middle">dsh</text>
<text x="958" y="350.469" font-family="Arial, Helvetica, sans-serif" font-size="28" fill="#1a1a1a" text-anchor="middle">opencode</text>
<text x="1157" y="350.469" font-family="Arial, Helvetica, sans-serif" font-size="28" fill="#1a1a1a" text-anchor="middle">gemini</text>
<text x="1347" y="350.469" font-family="Arial, Helvetica, sans-serif" font-size="28" fill="#1a1a1a" text-anchor="middle">copilot</text>
<text x="162" y="412.469" font-family="Arial, Helvetica, sans-serif" font-size="28" fill="#1a1a1a" text-anchor="middle">cursor</text>
<text x="361" y="412.469" font-family="Arial, Helvetica, sans-serif" font-size="28" fill="#1a1a1a" text-anchor="middle">crush</text>
<text x="560" y="412.469" font-family="Arial, Helvetica, sans-serif" font-size="28" fill="#1a1a1a" text-anchor="middle">goose</text>
<text x="759" y="412.469" font-family="Arial, Helvetica, sans-serif" font-size="28" fill="#1a1a1a" text-anchor="middle">qwen</text>
<text x="958" y="412.469" font-family="Arial, Helvetica, sans-serif" font-size="28" fill="#1a1a1a" text-anchor="middle">pi</text>
<text x="1157" y="412.469" font-family="Arial, Helvetica, sans-serif" font-size="28" fill="#1a1a1a" text-anchor="middle">hermes</text>
<text x="1347" y="412.469" font-family="Arial, Helvetica, sans-serif" font-size="28" fill="#1a1a1a" text-anchor="middle">mock</text>
<text x="88" y="482.629" font-family="Arial, Helvetica, sans-serif" font-size="28" fill="#1a1a1a" text-anchor="start">Pre-flight probing — unknown → 400 HARNESS_UNKNOWN ·</text>
<text x="88" y="518.469" font-family="Arial, Helvetica, sans-serif" font-size="28" fill="#1a1a1a" text-anchor="start">unavailable → 409 HARNESS_UNAVAILABLE — probing and spawn share one code path;</text>
<text x="88" y="554.309" font-family="Arial, Helvetica, sans-serif" font-size="28" fill="#1a1a1a" text-anchor="start">engine substitution = a configuration change (pre-registered ablation axis, not yet exercised)</text>
<text x="779" y="613.469" font-family="Arial, Helvetica, sans-serif" font-size="28" fill="#555555" text-anchor="start">spawn — one sub-agent session per stage</text>
<text x="74" y="683.107" font-family="Arial, Helvetica, sans-serif" font-size="32" fill="#1a1a1a" font-weight="700" text-anchor="start">3 · Orchestrating agent</text>
<text x="564" y="683.469" font-family="Arial, Helvetica, sans-serif" font-size="28" fill="#555555" text-anchor="start">18 skill packages · 14 specialised agents</text>
<text x="230" y="739.709" font-family="Arial, Helvetica, sans-serif" font-size="28" fill="#1a1a1a" text-anchor="middle">dispatch: absolute</text>
<text x="230" y="775.549" font-family="Arial, Helvetica, sans-serif" font-size="28" fill="#1a1a1a" text-anchor="middle">paths</text>
<text x="230" y="811.389" font-family="Arial, Helvetica, sans-serif" font-size="28" fill="#1a1a1a" text-anchor="middle">SKILL_PATH +</text>
<text x="230" y="847.229" font-family="Arial, Helvetica, sans-serif" font-size="28" fill="#1a1a1a" text-anchor="middle">RUN_DIR</text>
<text x="580" y="739.709" font-family="Arial, Helvetica, sans-serif" font-size="28" fill="#1a1a1a" text-anchor="middle">sub-agents talk ONLY</text>
<text x="580" y="775.549" font-family="Arial, Helvetica, sans-serif" font-size="28" fill="#1a1a1a" text-anchor="middle">via</text>
<text x="580" y="811.389" font-family="Arial, Helvetica, sans-serif" font-size="28" fill="#1a1a1a" text-anchor="middle">workspace artifacts,</text>
<text x="580" y="847.229" font-family="Arial, Helvetica, sans-serif" font-size="28" fill="#1a1a1a" text-anchor="middle">never via conversation</text>
<text x="930" y="757.629" font-family="Arial, Helvetica, sans-serif" font-size="28" fill="#1a1a1a" text-anchor="middle">bounded repair loops</text>
<text x="930" y="793.469" font-family="Arial, Helvetica, sans-serif" font-size="28" fill="#1a1a1a" text-anchor="middle">≤3 per fault · ≤5 global</text>
<text x="930" y="829.309" font-family="Arial, Helvetica, sans-serif" font-size="28" fill="#1a1a1a" text-anchor="middle">anti-oscillation cap 0.50</text>
<text x="1280" y="744.289" font-family="Arial, Helvetica, sans-serif" font-size="28" fill="#1a1a1a" text-anchor="middle">packages ship JSON</text>
<text x="1280" y="780.129" font-family="Arial, Helvetica, sans-serif" font-size="28" fill="#1a1a1a" text-anchor="middle">Schemas + validation</text>
<text x="1280" y="815.969" font-family="Arial, Helvetica, sans-serif" font-size="28" fill="#1a1a1a" text-anchor="middle">scripts</text>
<text x="1280" y="851.809" font-family="Arial, Helvetica, sans-serif" font-size="28" fill="#1a1a1a" text-anchor="middle">(machine-checked</text>
<text x="1280" y="887.649" font-family="Arial, Helvetica, sans-serif" font-size="28" fill="#1a1a1a" text-anchor="middle">gates)</text>
<text x="779" y="963.469" font-family="Arial, Helvetica, sans-serif" font-size="28" fill="#555555" text-anchor="start">stage dispatch (Steps 0–9)</text>
<text x="74" y="1033.11" font-family="Arial, Helvetica, sans-serif" font-size="32" fill="#1a1a1a" font-weight="700" text-anchor="start">4 · Diagnostic path</text>
<text x="524" y="1033.47" font-family="Arial, Helvetica, sans-serif" font-size="28" fill="#555555" text-anchor="start">nine gated stages (Steps 0–9) · each sub-agent authors its own artifacts</text>
<text x="195" y="1095.39" font-family="Arial, Helvetica, sans-serif" font-size="28" fill="#1a1a1a" font-weight="700" text-anchor="middle">S0/1 · Setup +</text>
<text x="195" y="1131.23" font-family="Arial, Helvetica, sans-serif" font-size="28" fill="#1a1a1a" font-weight="700" text-anchor="middle">Inspect</text>
<text x="195" y="1154.34" font-family="Arial, Helvetica, sans-serif" font-size="27" fill="#555555" text-anchor="middle">main agent</text>
<text x="477" y="1095.39" font-family="Arial, Helvetica, sans-serif" font-size="28" fill="#1a1a1a" font-weight="700" text-anchor="middle">S2 · Ontology</text>
<text x="477" y="1154.34" font-family="Arial, Helvetica, sans-serif" font-size="27" fill="#555555" text-anchor="middle">context-builder</text>
<text x="760" y="1095.39" font-family="Arial, Helvetica, sans-serif" font-size="28" fill="#1a1a1a" font-weight="700" text-anchor="middle">S3 · Statistics</text>
<text x="760" y="1154.34" font-family="Arial, Helvetica, sans-serif" font-size="27" fill="#555555" text-anchor="middle">data-processor</text>
<text x="1042" y="1095.39" font-family="Arial, Helvetica, sans-serif" font-size="28" fill="#1a1a1a" font-weight="700" text-anchor="middle">S4 · Diagnosis</text>
<text x="1042" y="1154.34" font-family="Arial, Helvetica, sans-serif" font-size="27" fill="#555555" text-anchor="middle">diagnostician</text>
<text x="1325" y="1095.39" font-family="Arial, Helvetica, sans-serif" font-size="28" fill="#1a1a1a" font-weight="700" text-anchor="middle">S5a · Judge</text>
<text x="1325" y="1131.23" font-family="Arial, Helvetica, sans-serif" font-size="28" fill="#1a1a1a" font-weight="700" text-anchor="middle">S5b · Pre-audit</text>
<text x="1325" y="1154.06" font-family="Arial, Helvetica, sans-serif" font-size="27" fill="#A34A00" font-weight="700" text-anchor="middle">PARALLEL</text>
<text x="1325" y="1281.39" font-family="Arial, Helvetica, sans-serif" font-size="28" fill="#1a1a1a" font-weight="700" text-anchor="middle">S6 · Report</text>
<text x="1325" y="1340.34" font-family="Arial, Helvetica, sans-serif" font-size="27" fill="#555555" text-anchor="middle">reporter</text>
<text x="1042" y="1281.39" font-family="Arial, Helvetica, sans-serif" font-size="28" fill="#1a1a1a" font-weight="700" text-anchor="middle">S7 · Final audit</text>
<text x="1042" y="1340.34" font-family="Arial, Helvetica, sans-serif" font-size="27" fill="#555555" text-anchor="middle">report-reviewer ·</text>
<text x="1042" y="1374.9" font-family="Arial, Helvetica, sans-serif" font-size="27" fill="#555555" text-anchor="middle">ENDORSED</text>
<text x="760" y="1281.39" font-family="Arial, Helvetica, sans-serif" font-size="28" fill="#1a1a1a" font-weight="700" text-anchor="middle">S8/8.5 · HTML +</text>
<text x="760" y="1317.23" font-family="Arial, Helvetica, sans-serif" font-size="28" fill="#1a1a1a" font-weight="700" text-anchor="middle">review</text>
<text x="760" y="1340.34" font-family="Arial, Helvetica, sans-serif" font-size="27" fill="#555555" text-anchor="middle">html-visualizer →</text>
<text x="760" y="1374.9" font-family="Arial, Helvetica, sans-serif" font-size="27" fill="#555555" text-anchor="middle">html-reviewer</text>
<text x="477" y="1281.39" font-family="Arial, Helvetica, sans-serif" font-size="28" fill="#1a1a1a" font-weight="700" text-anchor="middle">S9 · Finalize</text>
<text x="477" y="1340.34" font-family="Arial, Helvetica, sans-serif" font-size="27" fill="#555555" text-anchor="middle">deterministic script ·</text>
<text x="477" y="1374.9" font-family="Arial, Helvetica, sans-serif" font-size="27" fill="#555555" text-anchor="middle">PASS</text>
<text x="180" y="1303.78" font-family="Arial, Helvetica, sans-serif" font-size="27" fill="#8F8F8F" text-anchor="middle">row 2 reads</text>
<text x="180" y="1338.34" font-family="Arial, Helvetica, sans-serif" font-size="27" fill="#8F8F8F" text-anchor="middle">right → left</text>
<text x="88" y="1433.55" font-family="Arial, Helvetica, sans-serif" font-size="28" fill="#1a1a1a" text-anchor="start">+ optional layers outside the benchmarked path: RAG retrieval microservice (L6, health-probed) · ontology</text>
<text x="88" y="1469.39" font-family="Arial, Helvetica, sans-serif" font-size="28" fill="#1a1a1a" text-anchor="start">asset store (deterministic fast-reuse) · E0–E8 enhancement</text>
<text x="779" y="1533.47" font-family="Arial, Helvetica, sans-serif" font-size="28" fill="#555555" text-anchor="start">events + artifacts (append-only)</text>
<text x="74" y="1603.11" font-family="Arial, Helvetica, sans-serif" font-size="32" fill="#1a1a1a" font-weight="700" text-anchor="start">5 · Audit plane (machine-checked)</text>
<text x="220" y="1669.39" font-family="Arial, Helvetica, sans-serif" font-size="28" fill="#1a1a1a" font-weight="700" text-anchor="middle">.pipeline_events.jsonl</text>
<text x="220" y="1722.34" font-family="Arial, Helvetica, sans-serif" font-size="27" fill="#555555" text-anchor="middle">append-only execution</text>
<text x="220" y="1756.9" font-family="Arial, Helvetica, sans-serif" font-size="27" fill="#555555" text-anchor="middle">log</text>
<text x="580" y="1669.39" font-family="Arial, Helvetica, sans-serif" font-size="28" fill="#1a1a1a" font-weight="700" text-anchor="middle">log checker</text>
<text x="580" y="1722.34" font-family="Arial, Helvetica, sans-serif" font-size="27" fill="#555555" text-anchor="middle">start / completion ·</text>
<text x="580" y="1756.9" font-family="Arial, Helvetica, sans-serif" font-size="27" fill="#555555" text-anchor="middle">ordering · declared files</text>
<text x="940" y="1669.39" font-family="Arial, Helvetica, sans-serif" font-size="28" fill="#1a1a1a" font-weight="700" text-anchor="middle">finalization gate</text>
<text x="940" y="1722.34" font-family="Arial, Helvetica, sans-serif" font-size="27" fill="#555555" text-anchor="middle">inventory · schemas</text>
<text x="940" y="1756.9" font-family="Arial, Helvetica, sans-serif" font-size="27" fill="#555555" text-anchor="middle">closure · judge</text>
<text x="940" y="1791.46" font-family="Arial, Helvetica, sans-serif" font-size="27" fill="#555555" text-anchor="middle">cross-audit · events</text>
<text x="1300" y="1669.39" font-family="Arial, Helvetica, sans-serif" font-size="28" fill="#1a1a1a" font-weight="700" text-anchor="middle">single verdict</text>
<text x="1300" y="1722.34" font-family="Arial, Helvetica, sans-serif" font-size="27" fill="#555555" text-anchor="middle">PASS / FAIL —</text>
<text x="1300" y="1756.9" font-family="Arial, Helvetica, sans-serif" font-size="27" fill="#555555" text-anchor="middle">no proof, no grade</text>
<text x="88" y="1871.47" font-family="Arial, Helvetica, sans-serif" font-size="28" fill="#1a1a1a" text-anchor="start">No result exists without an execution proof — grading reads only artifacts that survived this plane.</text>
</svg>