<svg xmlns="http://www.w3.org/2000/svg" width="1500" height="700" viewBox="0 0 1500 700">
<rect width="100%" height="100%" fill="#ffffff"/>
<rect x="68" y="104" width="240" height="200" rx="7" ry="7" fill="#FBFCFD" stroke="#C6D0D9" stroke-width="1"/>
<rect x="82" y="256" width="86" height="30" rx="15" ry="15" fill="#E7F0F8" stroke="none" stroke-width="1"/>
<rect x="352" y="104" width="240" height="200" rx="7" ry="7" fill="#FBFCFD" stroke="#C6D0D9" stroke-width="1"/>
<rect x="366" y="256" width="100" height="30" rx="15" ry="15" fill="#E7F0F8" stroke="none" stroke-width="1"/>
<rect x="636" y="104" width="240" height="200" rx="7" ry="7" fill="#FBFCFD" stroke="#C6D0D9" stroke-width="1"/>
<rect x="650" y="256" width="86" height="30" rx="15" ry="15" fill="#E7F0F8" stroke="none" stroke-width="1"/>
<rect x="920" y="104" width="240" height="200" rx="7" ry="7" fill="#FBFCFD" stroke="#C6D0D9" stroke-width="1"/>
<rect x="934" y="256" width="86" height="30" rx="15" ry="15" fill="#E7F0F8" stroke="none" stroke-width="1"/>
<rect x="1204" y="104" width="240" height="200" rx="7" ry="7" fill="#FFFDF8" stroke="#E8C89A" stroke-width="1.5" stroke-dasharray="7 4"/>
<rect x="1272" y="112" width="104" height="26" rx="13" ry="13" fill="#FDEEE0" stroke="none" stroke-width="1"/>
<rect x="1212" y="146" width="108" height="78" rx="9" ry="9" fill="#FFFFFF" stroke="#C6D0D9" stroke-width="1"/>
<rect x="1328" y="146" width="108" height="78" rx="9" ry="9" fill="#FFFFFF" stroke="#C6D0D9" stroke-width="1"/>
<rect x="1258" y="256" width="132" height="30" rx="15" ry="15" fill="#E7F0F8" stroke="none" stroke-width="1"/>
<polyline points="308,204 352,204" fill="none" stroke="#2B2B2B" stroke-width="1.6"/>
<polygon points="352,204 342.0,208.6 342.0,199.4" fill="#2B2B2B"/>
<polyline points="592,204 636,204" fill="none" stroke="#2B2B2B" stroke-width="1.6"/>
<polygon points="636,204 626.0,208.6 626.0,199.4" fill="#2B2B2B"/>
<polyline points="876,204 920,204" fill="none" stroke="#2B2B2B" stroke-width="1.6"/>
<polygon points="920,204 910.0,208.6 910.0,199.4" fill="#2B2B2B"/>
<polyline points="1160,204 1204,204" fill="none" stroke="#2B2B2B" stroke-width="1.6"/>
<polygon points="1204,204 1194.0,208.6 1194.0,199.4" fill="#2B2B2B"/>
<polyline points="1324,304 1324,334" fill="none" stroke="#2B2B2B" stroke-width="1.6"/>
<polygon points="1324,334 1319.4,324.0 1328.6,324.0" fill="#2B2B2B"/>
<rect x="352" y="334" width="240" height="200" rx="7" ry="7" fill="#FBFCFD" stroke="#0A7D38" stroke-width="2.5"/>
<rect x="366" y="490" width="90" height="30" rx="15" ry="15" fill="#E2F2EC" stroke="none" stroke-width="1"/>
<rect x="636" y="334" width="240" height="200" rx="7" ry="7" fill="#FBFCFD" stroke="#0A7D38" stroke-width="2.5"/>
<rect x="650" y="490" width="100" height="30" rx="15" ry="15" fill="#E2F2EC" stroke="none" stroke-width="1"/>
<rect x="920" y="334" width="240" height="200" rx="7" ry="7" fill="#FBFCFD" stroke="#0A7D38" stroke-width="2.5"/>
<rect x="934" y="490" width="100" height="30" rx="15" ry="15" fill="#E2F2EC" stroke="none" stroke-width="1"/>
<rect x="1204" y="334" width="240" height="200" rx="7" ry="7" fill="#FBFCFD" stroke="#C6D0D9" stroke-width="1"/>
<rect x="1218" y="452" width="86" height="30" rx="15" ry="15" fill="#E7F0F8" stroke="none" stroke-width="1"/>
<polyline points="636,434 592,434" fill="none" stroke="#2B2B2B" stroke-width="1.6"/>
<polygon points="592,434 602.0,429.4 602.0,438.6" fill="#2B2B2B"/>
<polyline points="920,434 876,434" fill="none" stroke="#2B2B2B" stroke-width="1.6"/>
<polygon points="876,434 886.0,429.4 886.0,438.6" fill="#2B2B2B"/>
<polyline points="1204,434 1160,434" fill="none" stroke="#2B2B2B" stroke-width="1.6"/>
<polygon points="1160,434 1170.0,429.4 1170.0,438.6" fill="#2B2B2B"/>
<polyline points="1324,104 1324,48 1040,48 1040,104" fill="none" stroke="#E69F00" stroke-width="2" stroke-dasharray="8 5"/>
<polygon points="1040,104 1035.2,93.5 1044.8,93.5" fill="#E69F00"/>
<polyline points="1040,534 1045,578 1324,578 1324,534" fill="none" stroke="#E69F00" stroke-width="2" stroke-dasharray="8 5"/>
<polygon points="1324,534 1328.8,544.5 1319.2,544.5" fill="#E69F00"/>
<rect x="68" y="610" width="1376" height="56" rx="6" ry="6" fill="#F0F3F6" stroke="none" stroke-width="1"/>
<text x="188" y="141.29" font-family="Arial, Helvetica, sans-serif" font-size="26" fill="#1a1a1a" font-weight="700" text-anchor="middle">Step 0/1 · Setup ·</text>
<text x="188" y="174.57" font-family="Arial, Helvetica, sans-serif" font-size="26" fill="#1a1a1a" font-weight="700" text-anchor="middle">Inspect</text>
<text x="188" y="211.29" font-family="Arial, Helvetica, sans-serif" font-size="26" fill="#555555" text-anchor="middle">main agent +</text>
<text x="188" y="244.57" font-family="Arial, Helvetica, sans-serif" font-size="26" fill="#555555" text-anchor="middle">scripts</text>
<text x="125" y="281.65" font-family="Arial, Helvetica, sans-serif" font-size="26" fill="#0072B2" font-weight="700" text-anchor="middle">CP-1</text>
<text x="472" y="141.29" font-family="Arial, Helvetica, sans-serif" font-size="26" fill="#1a1a1a" font-weight="700" text-anchor="middle">Step 2 · Ontology</text>
<text x="472" y="211.29" font-family="Arial, Helvetica, sans-serif" font-size="26" fill="#555555" text-anchor="middle">context-builder</text>
<text x="416" y="281.65" font-family="Arial, Helvetica, sans-serif" font-size="26" fill="#0072B2" font-weight="700" text-anchor="middle">CP-2/3</text>
<text x="756" y="141.29" font-family="Arial, Helvetica, sans-serif" font-size="26" fill="#1a1a1a" font-weight="700" text-anchor="middle">Step 3 · Statistics</text>
<text x="756" y="211.29" font-family="Arial, Helvetica, sans-serif" font-size="26" fill="#555555" text-anchor="middle">data-processor</text>
<text x="693" y="281.65" font-family="Arial, Helvetica, sans-serif" font-size="26" fill="#0072B2" font-weight="700" text-anchor="middle">CP-4</text>
<text x="1040" y="141.29" font-family="Arial, Helvetica, sans-serif" font-size="26" fill="#1a1a1a" font-weight="700" text-anchor="middle">Step 4 · Diagnosis</text>
<text x="1040" y="211.29" font-family="Arial, Helvetica, sans-serif" font-size="26" fill="#555555" text-anchor="middle">diagnostician</text>
<text x="977" y="281.65" font-family="Arial, Helvetica, sans-serif" font-size="26" fill="#0072B2" font-weight="700" text-anchor="middle">CP-5</text>
<text x="1324" y="135.65" font-family="Arial, Helvetica, sans-serif" font-size="26" fill="#A34A00" font-weight="700" text-anchor="middle">PARALLEL</text>
<text x="1266" y="179.47" font-family="Arial, Helvetica, sans-serif" font-size="24" fill="#1a1a1a" text-anchor="middle">Step 5a ·</text>
<text x="1266" y="210.19" font-family="Arial, Helvetica, sans-serif" font-size="24" fill="#1a1a1a" text-anchor="middle">Judge</text>
<text x="1382" y="179.47" font-family="Arial, Helvetica, sans-serif" font-size="24" fill="#1a1a1a" text-anchor="middle">Step 5b ·</text>
<text x="1382" y="210.19" font-family="Arial, Helvetica, sans-serif" font-size="24" fill="#1a1a1a" text-anchor="middle">Pre-audit</text>
<text x="1324" y="281.65" font-family="Arial, Helvetica, sans-serif" font-size="26" fill="#0072B2" font-weight="700" text-anchor="middle">CP-6 ✓</text>
<text x="472" y="371.29" font-family="Arial, Helvetica, sans-serif" font-size="26" fill="#1a1a1a" font-weight="700" text-anchor="middle">Step 9 · Finalize</text>
<text x="472" y="441.29" font-family="Arial, Helvetica, sans-serif" font-size="26" fill="#555555" text-anchor="middle">deterministic script</text>
<text x="411" y="515.65" font-family="Arial, Helvetica, sans-serif" font-size="26" fill="#0A7D38" font-weight="700" text-anchor="middle">PASS</text>
<text x="756" y="371.29" font-family="Arial, Helvetica, sans-serif" font-size="26" fill="#1a1a1a" font-weight="700" text-anchor="middle">Steps 8/8.5 · HTML</text>
<text x="756" y="404.57" font-family="Arial, Helvetica, sans-serif" font-size="26" fill="#1a1a1a" font-weight="700" text-anchor="middle">build + review</text>
<text x="756" y="433.29" font-family="Arial, Helvetica, sans-serif" font-size="26" fill="#555555" text-anchor="middle">html-visualizer →</text>
<text x="756" y="466.57" font-family="Arial, Helvetica, sans-serif" font-size="26" fill="#555555" text-anchor="middle">html-reviewer</text>
<text x="700" y="515.65" font-family="Arial, Helvetica, sans-serif" font-size="26" fill="#0A7D38" font-weight="700" text-anchor="middle">CP-9 ✓</text>
<text x="1040" y="371.29" font-family="Arial, Helvetica, sans-serif" font-size="26" fill="#1a1a1a" font-weight="700" text-anchor="middle">Step 7 · Final audit</text>
<text x="1040" y="441.29" font-family="Arial, Helvetica, sans-serif" font-size="26" fill="#555555" text-anchor="middle">report-reviewer</text>
<text x="984" y="515.65" font-family="Arial, Helvetica, sans-serif" font-size="26" fill="#0A7D38" font-weight="700" text-anchor="middle">CP-8 ✓</text>
<text x="1324" y="371.29" font-family="Arial, Helvetica, sans-serif" font-size="26" fill="#1a1a1a" font-weight="700" text-anchor="middle">Step 6 · Report</text>
<text x="1324" y="441.29" font-family="Arial, Helvetica, sans-serif" font-size="26" fill="#555555" text-anchor="middle">reporter</text>
<text x="1261" y="477.65" font-family="Arial, Helvetica, sans-serif" font-size="26" fill="#0072B2" font-weight="700" text-anchor="middle">CP-7</text>
<text x="570" y="86.6496" font-family="Arial, Helvetica, sans-serif" font-size="26" fill="#7A4210" font-weight="700" text-anchor="middle">judge &lt; 90 → bounded repair (≤3 rounds · global ≤5 · cap 0.50)</text>
<text x="910" y="609.24" font-family="Arial, Helvetica, sans-serif" font-size="25" fill="#7A4210" font-weight="700" text-anchor="middle">final audit without ENDORSED → report repair (≤2 rounds)</text>
<text x="168" y="409.01" font-family="Arial, Helvetica, sans-serif" font-size="26" fill="#8F8F8F" text-anchor="middle">row 2 reads</text>
<text x="168" y="442.29" font-family="Arial, Helvetica, sans-serif" font-size="26" fill="#8F8F8F" text-anchor="middle">right → left</text>
<text x="86" y="632.24" font-family="Arial, Helvetica, sans-serif" font-size="25" fill="#1a1a1a" text-anchor="start">Every stage writes its own artifacts · every transition appends a structured event · gates are mechanical predicates. Step</text>
<text x="86" y="664.24" font-family="Arial, Helvetica, sans-serif" font-size="25" fill="#1a1a1a" text-anchor="start">5a ∥ 5b is the only mandatory parallel step.</text>
</svg>